<svg width="512" height="512" viewBox="0 0 512 512" xmlns="http://www.w3.org/2000/svg">
  <defs>
    <linearGradient id="gradient" x1="0%" y1="0%" x2="100%" y2="100%">
      <stop offset="0%" stop-color="#6a3093" />
      <stop offset="100%" stop-color="#a044ff" />
    </linearGradient>
  </defs>
  <rect x="0" y="0" width="512" height="512" rx="64" fill="#2e1f3e" />
  <g transform="translate(80, 80) scale(0.7)">
    <path d="M256 32C132.3 32 32 132.3 32 256s100.3 224 224 224 224-100.3 224-224S379.7 32 256 32zm0 416c-104.8 0-192-87.2-192-192S151.2 64 256 64s192 87.2 192 192-87.2 192-192 192z" fill="url(#gradient)" />
    <path d="M175.6 272c-9.7 0-19.2-3.5-26.6-10.3-6.6-6.1-10.6-14.1-11.3-22.5-.8-8.5 1.9-16.8 7.4-23.5 5.6-6.7 13.4-11 22-12.1 9.5-1.2 18.8 1.6 26.1 7.9L256 263.8l62.8-52.4c7.3-6.3 16.6-9.1 26.1-7.9 8.6 1.1 16.4 5.4 22 12.1 5.6 6.7 8.2 15 7.4 23.5-.7 8.4-4.7 16.4-11.3 22.5-7.4 6.8-16.9 10.3-26.6 10.3-9.2 0-18.2-3.2-25.4-9.1L256 216.4l-54.9 46.3c-7.3 5.9-16.2 9.3-25.5 9.3z" fill="url(#gradient)" />
  </g>
</svg>